<svg width="158" height="52" viewBox="0 0 158 52" fill="none" xmlns="http://www.w3.org/2000/svg">
<rect width="52" height="52" rx="16" fill="#3500FA"/>
<path d="M15.4918 32.8468L15.0004 36.6666L14.509 40.4863L17.0764 38.2832L19.6437 36.0801L15.4918 32.8468Z" fill="#E6E6E6"/>
<path d="M14.509 40.4863L15.0004 36.6666L15.4918 32.8468L44.7808 11.1052L11.8286 29.427L14.509 40.4863Z" fill="#CCCCCC"/>
<path d="M44.7808 11.1052L15.4918 32.8468L19.6437 36.0801L28.1971 42.7409C28.6999 43.1325 29.4358 42.9601 29.7124 42.3859L44.7808 11.1052Z" fill="white"/>
<path d="M11.8286 29.427L44.7808 11.1052L5.65889 23.7284C4.84474 23.9911 4.71491 25.0884 5.44527 25.5339L11.8286 29.427Z" fill="white"/>
<path d="M14.509 40.4863L11.8286 29.427M14.509 40.4863L17.0764 38.2832L19.6437 36.0801M14.509 40.4863L15.0004 36.6666L15.4918 32.8468M15.4918 32.8468L44.7808 11.1052M15.4918 32.8468L19.6437 36.0801M44.7808 11.1052L29.7124 42.3859C29.4358 42.9601 28.6999 43.1325 28.1971 42.7409L19.6437 36.0801M44.7808 11.1052L11.8286 29.427M44.7808 11.1052L5.65889 23.7284C4.84474 23.9911 4.71491 25.0884 5.44527 25.5339L11.8286 29.427" stroke="white" stroke-width="0.6" stroke-miterlimit="1.30541" stroke-linecap="round"/>
<path d="M113.044 49.3301C113.004 49.3301 112.944 49.2901 112.864 49.2101C112.464 48.8901 112.184 48.4101 112.024 47.7701C111.904 47.1701 111.844 46.6501 111.844 46.2101C111.804 45.4901 111.744 44.7701 111.664 44.0501C111.624 43.3301 111.604 42.6301 111.604 41.9501C111.604 40.9101 111.604 39.8901 111.604 38.8901C111.604 37.8901 111.704 36.8901 111.904 35.8901C112.024 35.2501 112.224 34.7501 112.504 34.3901C112.784 33.9901 113.224 33.6701 113.824 33.4301C114.944 32.9901 116.064 32.7701 117.184 32.7701H144.304C145.064 32.8101 145.844 32.8701 146.644 32.9501C147.444 33.0301 148.204 33.2301 148.924 33.5501C149.724 33.8701 150.244 34.4101 150.484 35.1701C150.764 35.8901 150.944 36.6501 151.024 37.4501C151.064 38.1301 151.084 38.9301 151.084 39.8501C151.124 40.7301 151.124 41.6301 151.084 42.5501C151.044 43.4701 150.984 44.3701 150.904 45.2501C150.824 46.1701 150.684 46.9901 150.484 47.7101C150.364 48.1501 150.224 48.5301 150.064 48.8501C149.904 49.2101 149.584 49.4701 149.104 49.6301C148.664 49.7901 148.204 49.8901 147.724 49.9301C147.284 49.9701 146.844 49.9901 146.404 49.9901L116.284 49.8701C115.764 49.8301 115.204 49.8101 114.604 49.8101C114.004 49.8101 113.484 49.6501 113.044 49.3301ZM131.104 21.0101C131.704 21.0101 132.324 21.0701 132.964 21.1901C133.604 21.2701 134.204 21.4701 134.764 21.7901C135.324 22.0701 135.784 22.4701 136.144 22.9901C136.504 23.4701 136.684 24.1301 136.684 24.9701C136.684 25.8101 136.364 26.4701 135.724 26.9501C135.084 27.4301 134.304 27.7901 133.384 28.0301C132.464 28.2701 131.484 28.4301 130.444 28.5101C129.444 28.5501 128.564 28.5701 127.804 28.5701H118.744C118.024 28.5701 117.284 28.5701 116.524 28.5701C115.804 28.5701 115.104 28.5101 114.424 28.3901C113.784 28.2701 113.204 28.0901 112.684 27.8501C112.164 27.5701 111.744 27.1901 111.424 26.7101C111.064 26.1901 110.804 25.5501 110.644 24.7901C110.524 23.9901 110.424 23.2301 110.344 22.5101C110.304 21.7501 110.284 21.1101 110.284 20.5901C110.324 20.0301 110.344 19.7101 110.344 19.6301L110.464 8.83013C110.464 8.71013 110.464 8.49013 110.464 8.17013C110.464 7.85013 110.484 7.51013 110.524 7.15013C110.564 6.75013 110.624 6.35013 110.704 5.95013C110.784 5.55013 110.904 5.23013 111.064 4.99013C111.424 4.43013 111.784 4.01013 112.144 3.73013C112.544 3.45013 113.064 3.27013 113.704 3.19013C114.504 3.03013 115.664 2.95013 117.184 2.95013C117.304 2.95013 117.664 2.95013 118.264 2.95013C118.864 2.95013 119.564 2.97013 120.364 3.01013C121.204 3.01013 122.104 3.03013 123.064 3.07013C124.024 3.07013 124.904 3.09013 125.704 3.13013C126.544 3.13013 127.264 3.15013 127.864 3.19013C128.464 3.19013 128.824 3.19013 128.944 3.19013C129.464 3.19013 130.004 3.21013 130.564 3.25013C131.124 3.25013 131.664 3.31013 132.184 3.43013C132.704 3.55013 133.184 3.75013 133.624 4.03013C134.104 4.27013 134.504 4.65013 134.824 5.17013C135.264 5.85013 135.464 6.59013 135.424 7.39013C135.424 8.19013 135.184 8.93013 134.704 9.61013C134.464 9.93013 134.144 10.1901 133.744 10.3901C133.344 10.5901 132.904 10.7501 132.424 10.8701C131.944 10.9501 131.464 11.0101 130.984 11.0501C130.544 11.0501 130.164 11.0501 129.844 11.0501L118.684 10.9901L118.804 20.8301C119.324 20.8701 120.164 20.9101 121.324 20.9501C122.484 20.9901 123.684 21.0101 124.924 21.0101C126.204 21.0101 127.424 21.0101 128.584 21.0101C129.744 21.0101 130.584 21.0101 131.104 21.0101ZM150.724 21.3101V25.6301C150.684 26.0701 150.624 26.5301 150.544 27.0101C150.464 27.4501 150.304 27.8901 150.064 28.3301C149.824 28.8101 149.484 29.2101 149.044 29.5301C148.724 29.7301 148.344 29.8901 147.904 30.0101C147.504 30.0901 147.144 30.1301 146.824 30.1301C146.504 30.1301 146.164 30.1101 145.804 30.0701C145.444 29.9901 145.144 29.8701 144.904 29.7101C144.504 29.4701 144.184 29.1701 143.944 28.8101C143.704 28.4501 143.504 28.1101 143.344 27.7901C143.224 27.4301 143.144 27.1301 143.104 26.8901C143.064 26.6101 143.044 26.4701 143.044 26.4701V6.61013C143.004 6.45013 143.024 6.01013 143.104 5.29013C143.184 4.57013 143.344 3.97013 143.584 3.49013C143.784 3.09013 144.124 2.77013 144.604 2.53013C145.124 2.29013 145.664 2.13013 146.224 2.05013C146.904 1.97013 147.584 2.01013 148.264 2.17013C148.944 2.33013 149.444 2.59013 149.764 2.95013C150.004 3.27013 150.164 3.59013 150.244 3.91013C150.364 4.19013 150.464 4.49013 150.544 4.81013C150.664 5.21013 150.724 5.63013 150.724 6.07013C150.764 6.51013 150.764 6.95013 150.724 7.39013V14.6501C150.884 14.6501 151.184 14.6701 151.624 14.7101C152.064 14.7101 152.524 14.7301 153.004 14.7701C153.484 14.7701 153.944 14.7901 154.384 14.8301C154.824 14.8701 155.144 14.9101 155.344 14.9501C156.144 15.1101 156.704 15.3501 157.024 15.6701C157.344 15.9501 157.544 16.3101 157.624 16.7501C157.744 17.1901 157.804 17.7101 157.804 18.3101C157.804 18.8701 157.684 19.3501 157.444 19.7501C156.964 20.5501 156.244 21.0101 155.284 21.1301C154.324 21.2101 153.264 21.2701 152.104 21.3101H150.724ZM118.744 42.3101C118.744 42.5101 118.744 42.7101 118.744 42.9101C118.784 43.0701 118.864 43.1901 118.984 43.2701C119.064 43.3501 119.184 43.3901 119.344 43.3901C119.544 43.4301 119.744 43.4501 119.944 43.4501C120.144 43.4501 120.384 43.4301 120.664 43.3901H138.304C138.864 43.4301 139.404 43.4701 139.924 43.5101C140.364 43.5501 140.824 43.5701 141.304 43.5701C141.784 43.5701 142.224 43.5301 142.624 43.4501C143.024 43.4101 143.264 43.3101 143.344 43.1501C143.424 42.9501 143.484 42.6701 143.524 42.3101C143.564 41.9901 143.584 41.6301 143.584 41.2301C143.584 40.7901 143.464 40.4101 143.224 40.0901C142.944 39.7701 142.544 39.6101 142.024 39.6101C141.544 39.5701 141.104 39.5701 140.704 39.6101H125.164C124.284 39.5301 123.424 39.5101 122.584 39.5501C121.744 39.5501 120.884 39.5701 120.004 39.6101C119.684 39.6101 119.424 39.6301 119.224 39.6701C119.064 39.6701 118.944 39.8501 118.864 40.2101C118.784 40.4901 118.744 40.7701 118.744 41.0501C118.744 41.2901 118.744 41.5301 118.744 41.7701C118.784 41.8501 118.784 41.9301 118.744 42.0101C118.744 42.0901 118.744 42.1901 118.744 42.3101Z" fill="#3500FA"/>
<path d="M87.3 9.7301C87.3 9.5701 87.32 9.2901 87.36 8.8901C87.4 8.4901 87.44 8.0901 87.48 7.6901C87.52 7.2501 87.56 6.8501 87.6 6.4901C87.68 6.1301 87.76 5.8701 87.84 5.7101C87.92 5.5101 88.02 5.2901 88.14 5.0501C88.3 4.7701 88.48 4.5301 88.68 4.3301C88.88 4.0501 89.2 3.8501 89.64 3.7301C90.08 3.5701 90.52 3.4501 90.96 3.3701H91.08C91.48 3.2901 91.82 3.2701 92.1 3.3101C92.38 3.3101 92.7 3.3501 93.06 3.4301C93.46 3.5501 93.78 3.7101 94.02 3.9101C94.22 4.0301 94.46 4.2101 94.74 4.4501C95.06 4.6901 95.3 4.9701 95.46 5.2901C95.86 6.0101 96.1 6.8501 96.18 7.8101V9.7901C96.22 10.7501 96.22 11.6501 96.18 12.4901C96.18 13.3301 96.22 14.1501 96.3 14.9501C96.38 15.7101 96.54 16.4901 96.78 17.2901C97.02 18.0501 97.38 18.8901 97.86 19.8101C98.18 20.3701 98.48 20.8901 98.76 21.3701C99.08 21.8501 99.38 22.3301 99.66 22.8101C99.98 23.2501 100.28 23.7101 100.56 24.1901C100.88 24.6701 101.2 25.2101 101.52 25.8101C101.64 26.0101 101.76 26.2301 101.88 26.4701C102.04 26.7101 102.18 26.9501 102.3 27.1901C102.5 27.5901 102.66 28.0301 102.78 28.5101C102.94 28.9901 103.02 29.4701 103.02 29.9501C103.02 30.4301 102.92 30.8901 102.72 31.3301C102.52 31.7301 102.18 32.0701 101.7 32.3501C101.46 32.4701 101.16 32.6101 100.8 32.7701C100.44 32.9301 100.04 33.0301 99.6 33.0701C99.16 33.1101 98.72 33.0701 98.28 32.9501C97.84 32.7901 97.44 32.4901 97.08 32.0501C96.48 31.4101 95.94 30.8101 95.46 30.2501C95.02 29.6901 94.58 29.1301 94.14 28.5701C93.7 27.9701 93.26 27.3501 92.82 26.7101C92.38 26.0301 91.86 25.2701 91.26 24.4301C90.58 25.3501 89.88 26.2701 89.16 27.1901C88.48 28.1101 87.76 29.0301 87 29.9501C86.6 30.4701 86.22 30.9501 85.86 31.3901C85.5 31.7901 85.02 32.1301 84.42 32.4101C83.38 32.9701 82.38 33.0901 81.42 32.7701C81.14 32.7301 80.88 32.6101 80.64 32.4101C80.28 32.1701 79.94 31.8901 79.62 31.5701C79.3 31.2501 78.98 30.8701 78.66 30.4301C77.82 29.3901 77 28.2901 76.2 27.1301C75.44 25.9301 74.9 25.0101 74.58 24.3701C73.9 25.2901 73.2 26.2101 72.48 27.1301C71.76 28.0501 71.04 28.9701 70.32 29.8901C69.8 30.5301 69.3 31.1101 68.82 31.6301C68.38 32.1501 67.62 32.4901 66.54 32.6501C65.74 32.7701 65.02 32.7901 64.38 32.7101C63.74 32.5901 63.2 32.2701 62.76 31.7501C62.28 31.2301 62.04 30.6901 62.04 30.1301C62.04 29.5301 62.16 28.9501 62.4 28.3901C62.68 27.8301 63.02 27.2901 63.42 26.7701C63.82 26.2101 64.18 25.6901 64.5 25.2101L68.22 19.3901C68.58 18.6701 68.9 18.0901 69.18 17.6501C69.5 17.1701 69.76 16.7101 69.96 16.2701C70.16 15.8301 70.32 15.3701 70.44 14.8901C70.56 14.4101 70.62 13.7701 70.62 12.9701V7.8701C70.62 7.0301 70.78 6.2901 71.1 5.6501C71.3 5.2101 71.6 4.7501 72 4.2701C72.2 3.9901 72.52 3.7901 72.96 3.6701C73.4 3.5101 73.84 3.3901 74.28 3.3101H74.4C74.8 3.2301 75.14 3.2101 75.42 3.2501C75.7 3.2501 76 3.2901 76.32 3.3701C76.52 3.4501 76.7 3.5301 76.86 3.6101C77.02 3.6901 77.18 3.7701 77.34 3.8501C77.54 3.9701 77.78 4.1501 78.06 4.3901C78.38 4.6301 78.62 4.9101 78.78 5.2301C78.98 5.5901 79.12 5.9901 79.2 6.4301C79.32 6.8301 79.42 7.2701 79.5 7.7501V12.1301C79.5 12.9301 79.48 13.6301 79.44 14.2301C79.4 14.7901 79.4 15.3501 79.44 15.9101C79.48 16.4301 79.58 16.9501 79.74 17.4701C79.94 17.9901 80.24 18.5501 80.64 19.1501C80.96 19.8301 81.3 20.5101 81.66 21.1901C82.02 21.8701 82.38 22.5701 82.74 23.2901C83.18 22.7301 83.58 22.1901 83.94 21.6701C84.3 21.1501 84.68 20.5101 85.08 19.7501C85.8 18.3101 86.34 17.0901 86.7 16.0901C87.1 15.0501 87.3 14.0501 87.3 13.0901V9.7301ZM65.16 46.1501C64.52 46.1101 63.88 46.0101 63.24 45.8501C62.64 45.7301 62.1 45.5301 61.62 45.2501C61.14 45.0101 60.74 44.6501 60.42 44.1701C60.14 43.6901 60 43.0501 60 42.2501C60 41.4501 60.26 40.7501 60.78 40.1501C61.1 39.8301 61.5 39.5901 61.98 39.4301C62.46 39.2701 62.92 39.1501 63.36 39.0701C63.8 38.9901 64.18 38.9501 64.5 38.9501C64.86 38.9501 65.06 38.9501 65.1 38.9501L98.52 39.0101C99.56 39.0101 100.5 39.0301 101.34 39.0701C102.22 39.0701 103 39.3501 103.68 39.9101C104.52 40.6701 104.94 41.5301 104.94 42.4901C104.94 43.0901 104.76 43.6301 104.4 44.1101C104.04 44.6301 103.56 44.9901 102.96 45.1901C102.16 45.5101 101.32 45.7301 100.44 45.8501C99.6 45.9701 98.76 46.0501 97.92 46.0901C95 46.2101 92.02 46.2501 88.98 46.2101C85.94 46.1701 83.08 46.1501 80.4 46.1501C77.52 46.1501 74.7 46.1701 71.94 46.2101C69.22 46.2501 66.96 46.2301 65.16 46.1501Z" fill="#3500FA"/>
</svg>
