<svg width="158" height="52" viewBox="0 0 158 52" fill="none" xmlns="http://www.w3.org/2000/svg">
<rect width="52" height="52" rx="16" fill="#3500FA"/>
<path d="M15.4918 32.8468L15.0004 36.6666L14.509 40.4863L17.0764 38.2832L19.6437 36.0801L15.4918 32.8468Z" fill="#E6E6E6"/>
<path d="M14.509 40.4863L15.0004 36.6666L15.4918 32.8468L44.7808 11.1052L11.8286 29.427L14.509 40.4863Z" fill="#CCCCCC"/>
<path d="M44.7808 11.1052L15.4918 32.8468L19.6437 36.0801L28.1971 42.7409C28.6999 43.1325 29.4358 42.9601 29.7124 42.3859L44.7808 11.1052Z" fill="white"/>
<path d="M11.8286 29.427L44.7808 11.1052L5.65889 23.7284C4.84474 23.9911 4.71491 25.0884 5.44527 25.5339L11.8286 29.427Z" fill="white"/>
<path d="M14.509 40.4863L11.8286 29.427M14.509 40.4863L17.0764 38.2832L19.6437 36.0801M14.509 40.4863L15.0004 36.6666L15.4918 32.8468M15.4918 32.8468L44.7808 11.1052M15.4918 32.8468L19.6437 36.0801M44.7808 11.1052L29.7124 42.3859C29.4358 42.9601 28.6999 43.1325 28.1971 42.7409L19.6437 36.0801M44.7808 11.1052L11.8286 29.427M44.7808 11.1052L5.65889 23.7284C4.84474 23.9911 4.71491 25.0884 5.44527 25.5339L11.8286 29.427" stroke="white" stroke-width="0.6" stroke-miterlimit="1.30541" stroke-linecap="round"/>
<path d="M112.7 49.33C112.66 49.33 112.6 49.29 112.52 49.21C112.12 48.89 111.84 48.41 111.68 47.77C111.56 47.17 111.5 46.65 111.5 46.21C111.46 45.49 111.4 44.77 111.32 44.05C111.28 43.33 111.26 42.63 111.26 41.95C111.26 40.91 111.26 39.89 111.26 38.89C111.26 37.89 111.36 36.89 111.56 35.89C111.68 35.25 111.88 34.75 112.16 34.39C112.44 33.99 112.88 33.67 113.48 33.43C114.6 32.99 115.72 32.77 116.84 32.77H143.96C144.72 32.81 145.5 32.87 146.3 32.95C147.1 33.03 147.86 33.23 148.58 33.55C149.38 33.87 149.9 34.41 150.14 35.17C150.42 35.89 150.6 36.65 150.68 37.45C150.72 38.13 150.74 38.93 150.74 39.85C150.78 40.73 150.78 41.63 150.74 42.55C150.7 43.47 150.64 44.37 150.56 45.25C150.48 46.17 150.34 46.99 150.14 47.71C150.02 48.15 149.88 48.53 149.72 48.85C149.56 49.21 149.24 49.47 148.76 49.63C148.32 49.79 147.86 49.89 147.38 49.93C146.94 49.97 146.5 49.99 146.06 49.99L115.94 49.87C115.42 49.83 114.86 49.81 114.26 49.81C113.66 49.81 113.14 49.65 112.7 49.33ZM130.76 21.01C131.36 21.01 131.98 21.07 132.62 21.19C133.26 21.27 133.86 21.47 134.42 21.79C134.98 22.07 135.44 22.47 135.8 22.99C136.16 23.47 136.34 24.13 136.34 24.97C136.34 25.81 136.02 26.47 135.38 26.95C134.74 27.43 133.96 27.79 133.04 28.03C132.12 28.27 131.14 28.43 130.1 28.51C129.1 28.55 128.22 28.57 127.46 28.57H118.4C117.68 28.57 116.94 28.57 116.18 28.57C115.46 28.57 114.76 28.51 114.08 28.39C113.44 28.27 112.86 28.09 112.34 27.85C111.82 27.57 111.4 27.19 111.08 26.71C110.72 26.19 110.46 25.55 110.3 24.79C110.18 23.99 110.08 23.23 110 22.51C109.96 21.75 109.94 21.11 109.94 20.59C109.98 20.03 110 19.71 110 19.63L110.12 8.83001C110.12 8.71001 110.12 8.49001 110.12 8.17001C110.12 7.85001 110.14 7.51001 110.18 7.15001C110.22 6.75001 110.28 6.35001 110.36 5.95001C110.44 5.55001 110.56 5.23001 110.72 4.99001C111.08 4.43001 111.44 4.01001 111.8 3.73001C112.2 3.45001 112.72 3.27001 113.36 3.19001C114.16 3.03001 115.32 2.95001 116.84 2.95001C116.96 2.95001 117.32 2.95001 117.92 2.95001C118.52 2.95001 119.22 2.97001 120.02 3.01001C120.86 3.01001 121.76 3.03001 122.72 3.07001C123.68 3.07001 124.56 3.09001 125.36 3.13001C126.2 3.13001 126.92 3.15001 127.52 3.19001C128.12 3.19001 128.48 3.19001 128.6 3.19001C129.12 3.19001 129.66 3.21001 130.22 3.25001C130.78 3.25001 131.32 3.31001 131.84 3.43001C132.36 3.55001 132.84 3.75001 133.28 4.03001C133.76 4.27001 134.16 4.65001 134.48 5.17001C134.92 5.85001 135.12 6.59001 135.08 7.39001C135.08 8.19001 134.84 8.93001 134.36 9.61001C134.12 9.93001 133.8 10.19 133.4 10.39C133 10.59 132.56 10.75 132.08 10.87C131.6 10.95 131.12 11.01 130.64 11.05C130.2 11.05 129.82 11.05 129.5 11.05L118.34 10.99L118.46 20.83C118.98 20.87 119.82 20.91 120.98 20.95C122.14 20.99 123.34 21.01 124.58 21.01C125.86 21.01 127.08 21.01 128.24 21.01C129.4 21.01 130.24 21.01 130.76 21.01ZM150.38 21.31V25.63C150.34 26.07 150.28 26.53 150.2 27.01C150.12 27.45 149.96 27.89 149.72 28.33C149.48 28.81 149.14 29.21 148.7 29.53C148.38 29.73 148 29.89 147.56 30.01C147.16 30.09 146.8 30.13 146.48 30.13C146.16 30.13 145.82 30.11 145.46 30.07C145.1 29.99 144.8 29.87 144.56 29.71C144.16 29.47 143.84 29.17 143.6 28.81C143.36 28.45 143.16 28.11 143 27.79C142.88 27.43 142.8 27.13 142.76 26.89C142.72 26.61 142.7 26.47 142.7 26.47V6.61001C142.66 6.45001 142.68 6.01001 142.76 5.29001C142.84 4.57001 143 3.97001 143.24 3.49001C143.44 3.09001 143.78 2.77001 144.26 2.53001C144.78 2.29001 145.32 2.13001 145.88 2.05001C146.56 1.97001 147.24 2.01001 147.92 2.17001C148.6 2.33001 149.1 2.59001 149.42 2.95001C149.66 3.27001 149.82 3.59001 149.9 3.91001C150.02 4.19001 150.12 4.49001 150.2 4.81001C150.32 5.21001 150.38 5.63001 150.38 6.07001C150.42 6.51001 150.42 6.95001 150.38 7.39001V14.65C150.54 14.65 150.84 14.67 151.28 14.71C151.72 14.71 152.18 14.73 152.66 14.77C153.14 14.77 153.6 14.79 154.04 14.83C154.48 14.87 154.8 14.91 155 14.95C155.8 15.11 156.36 15.35 156.68 15.67C157 15.95 157.2 16.31 157.28 16.75C157.4 17.19 157.46 17.71 157.46 18.31C157.46 18.87 157.34 19.35 157.1 19.75C156.62 20.55 155.9 21.01 154.94 21.13C153.98 21.21 152.92 21.27 151.76 21.31H150.38ZM118.4 42.31C118.4 42.51 118.4 42.71 118.4 42.91C118.44 43.07 118.52 43.19 118.64 43.27C118.72 43.35 118.84 43.39 119 43.39C119.2 43.43 119.4 43.45 119.6 43.45C119.8 43.45 120.04 43.43 120.32 43.39H137.96C138.52 43.43 139.06 43.47 139.58 43.51C140.02 43.55 140.48 43.57 140.96 43.57C141.44 43.57 141.88 43.53 142.28 43.45C142.68 43.41 142.92 43.31 143 43.15C143.08 42.95 143.14 42.67 143.18 42.31C143.22 41.99 143.24 41.63 143.24 41.23C143.24 40.79 143.12 40.41 142.88 40.09C142.6 39.77 142.2 39.61 141.68 39.61C141.2 39.57 140.76 39.57 140.36 39.61H124.82C123.94 39.53 123.08 39.51 122.24 39.55C121.4 39.55 120.54 39.57 119.66 39.61C119.34 39.61 119.08 39.63 118.88 39.67C118.72 39.67 118.6 39.85 118.52 40.21C118.44 40.49 118.4 40.77 118.4 41.05C118.4 41.29 118.4 41.53 118.4 41.77C118.44 41.85 118.44 41.93 118.4 42.01C118.4 42.09 118.4 42.19 118.4 42.31Z" fill="#3500FA"/>
<path d="M87.3 9.72974C87.3 9.56974 87.32 9.28973 87.36 8.88974C87.4 8.48974 87.44 8.08974 87.48 7.68974C87.52 7.24973 87.56 6.84974 87.6 6.48974C87.68 6.12974 87.76 5.86974 87.84 5.70974C87.92 5.50974 88.02 5.28974 88.14 5.04973C88.3 4.76974 88.48 4.52974 88.68 4.32974C88.88 4.04974 89.2 3.84974 89.64 3.72974C90.08 3.56974 90.52 3.44974 90.96 3.36973H91.08C91.48 3.28974 91.82 3.26974 92.1 3.30974C92.38 3.30974 92.7 3.34974 93.06 3.42973C93.46 3.54974 93.78 3.70974 94.02 3.90973C94.22 4.02974 94.46 4.20974 94.74 4.44973C95.06 4.68973 95.3 4.96973 95.46 5.28974C95.86 6.00974 96.1 6.84973 96.18 7.80973V9.78973C96.22 10.7497 96.22 11.6497 96.18 12.4897C96.18 13.3297 96.22 14.1497 96.3 14.9497C96.38 15.7097 96.54 16.4897 96.78 17.2897C97.02 18.0497 97.38 18.8897 97.86 19.8097C98.18 20.3697 98.48 20.8897 98.76 21.3697C99.08 21.8497 99.38 22.3297 99.66 22.8097C99.98 23.2497 100.28 23.7097 100.56 24.1897C100.88 24.6697 101.2 25.2097 101.52 25.8097C101.64 26.0097 101.76 26.2297 101.88 26.4697C102.04 26.7097 102.18 26.9497 102.3 27.1897C102.5 27.5897 102.66 28.0297 102.78 28.5097C102.94 28.9897 103.02 29.4697 103.02 29.9497C103.02 30.4297 102.92 30.8897 102.72 31.3297C102.52 31.7297 102.18 32.0697 101.7 32.3497C101.46 32.4697 101.16 32.6097 100.8 32.7697C100.44 32.9297 100.04 33.0297 99.6 33.0697C99.16 33.1097 98.72 33.0697 98.28 32.9497C97.84 32.7897 97.44 32.4897 97.08 32.0497C96.48 31.4097 95.94 30.8097 95.46 30.2497C95.02 29.6897 94.58 29.1297 94.14 28.5697C93.7 27.9697 93.26 27.3497 92.82 26.7097C92.38 26.0297 91.86 25.2697 91.26 24.4297C90.58 25.3497 89.88 26.2697 89.16 27.1897C88.48 28.1097 87.76 29.0297 87 29.9497C86.6 30.4697 86.22 30.9497 85.86 31.3897C85.5 31.7897 85.02 32.1297 84.42 32.4097C83.38 32.9697 82.38 33.0897 81.42 32.7697C81.14 32.7297 80.88 32.6097 80.64 32.4097C80.28 32.1697 79.94 31.8897 79.62 31.5697C79.3 31.2497 78.98 30.8697 78.66 30.4297C77.82 29.3897 77 28.2897 76.2 27.1297C75.44 25.9297 74.9 25.0097 74.58 24.3697C73.9 25.2897 73.2 26.2097 72.48 27.1297C71.76 28.0497 71.04 28.9697 70.32 29.8897C69.8 30.5297 69.3 31.1097 68.82 31.6297C68.38 32.1497 67.62 32.4897 66.54 32.6497C65.74 32.7697 65.02 32.7897 64.38 32.7097C63.74 32.5897 63.2 32.2697 62.76 31.7497C62.28 31.2297 62.04 30.6897 62.04 30.1297C62.04 29.5297 62.16 28.9497 62.4 28.3897C62.68 27.8297 63.02 27.2897 63.42 26.7697C63.82 26.2097 64.18 25.6897 64.5 25.2097L68.22 19.3897C68.58 18.6697 68.9 18.0897 69.18 17.6497C69.5 17.1697 69.76 16.7097 69.96 16.2697C70.16 15.8297 70.32 15.3697 70.44 14.8897C70.56 14.4097 70.62 13.7697 70.62 12.9697V7.86974C70.62 7.02974 70.78 6.28974 71.1 5.64974C71.3 5.20974 71.6 4.74974 72 4.26974C72.2 3.98974 72.52 3.78974 72.96 3.66973C73.4 3.50973 73.84 3.38973 74.28 3.30974H74.4C74.8 3.22974 75.14 3.20974 75.42 3.24974C75.7 3.24974 76 3.28974 76.32 3.36973C76.52 3.44974 76.7 3.52974 76.86 3.60973C77.02 3.68974 77.18 3.76974 77.34 3.84974C77.54 3.96974 77.78 4.14974 78.06 4.38974C78.38 4.62973 78.62 4.90973 78.78 5.22974C78.98 5.58974 79.12 5.98974 79.2 6.42973C79.32 6.82973 79.42 7.26973 79.5 7.74974V12.1297C79.5 12.9297 79.48 13.6297 79.44 14.2297C79.4 14.7897 79.4 15.3497 79.44 15.9097C79.48 16.4297 79.58 16.9497 79.74 17.4697C79.94 17.9897 80.24 18.5497 80.64 19.1497C80.96 19.8297 81.3 20.5097 81.66 21.1897C82.02 21.8697 82.38 22.5697 82.74 23.2897C83.18 22.7297 83.58 22.1897 83.94 21.6697C84.3 21.1497 84.68 20.5097 85.08 19.7497C85.8 18.3097 86.34 17.0897 86.7 16.0897C87.1 15.0497 87.3 14.0497 87.3 13.0897V9.72974ZM65.16 46.1497C64.52 46.1097 63.88 46.0097 63.24 45.8497C62.64 45.7297 62.1 45.5297 61.62 45.2497C61.14 45.0097 60.74 44.6497 60.42 44.1697C60.14 43.6897 60 43.0497 60 42.2497C60 41.4497 60.26 40.7497 60.78 40.1497C61.1 39.8297 61.5 39.5897 61.98 39.4297C62.46 39.2697 62.92 39.1497 63.36 39.0697C63.8 38.9897 64.18 38.9497 64.5 38.9497C64.86 38.9497 65.06 38.9497 65.1 38.9497L98.52 39.0097C99.56 39.0097 100.5 39.0297 101.34 39.0697C102.22 39.0697 103 39.3497 103.68 39.9097C104.52 40.6697 104.94 41.5297 104.94 42.4897C104.94 43.0897 104.76 43.6297 104.4 44.1097C104.04 44.6297 103.56 44.9897 102.96 45.1897C102.16 45.5097 101.32 45.7297 100.44 45.8497C99.6 45.9697 98.76 46.0497 97.92 46.0897C95 46.2097 92.02 46.2497 88.98 46.2097C85.94 46.1697 83.08 46.1497 80.4 46.1497C77.52 46.1497 74.7 46.1697 71.94 46.2097C69.22 46.2497 66.96 46.2297 65.16 46.1497Z" fill="#3500FA"/>
</svg>
